<?xml version="1.0" encoding="utf-8"?>
<svg xmlns="http://www.w3.org/2000/svg" height="128" width="128" viewBox="0 0 128 128">
  <g>
    <path id="path1" transform="rotate(0,64,64) translate(35,35.0181301976398) scale(1.81142354650744,1.81142354650744)  " fill="#000000" d="M11,17.998998L11,19.998998 19.999999,19.998998 19.999999,17.998998z M10,15.998997L20.999999,15.998997C21.553001,15.998997,21.999999,16.446998,21.999999,16.998998L21.999999,20.998998C21.999999,21.551997,21.553001,21.998998,20.999999,21.998998L10,21.998998C9.447,21.998998,9.0000004,21.551997,9.0000004,20.998998L9.0000004,16.998998C9.0000004,16.446998,9.447,15.998997,10,15.998997z M1.9999995,11.999542L1.9999995,29.998998 29.999999,29.998998 29.999999,11.999542z M4.7432131,1.9999232L2.3433926,9.9989968 29.654832,9.9989968 27.255043,1.9999232z M3.9991998,0L27.999025,0C28.44104,-2.7621081E-07,28.830013,0.2899972,28.957027,0.71295451L31.902988,10.530603C31.976993,10.669576 32.019016,10.83058 32.019016,10.99958 32.019016,11.03408 32.017269,11.068172 32.013862,11.101774L31.999999,11.192686 31.999999,30.998998C31.999999,31.551997,31.553001,31.998998,30.999999,31.998998L1.0000002,31.998998C0.44700005,31.998998,3.6554411E-08,31.551997,0,30.998998L0,10.998997 0.00068848487,10.985349 0.00064029568,10.942803 0.0045235794,10.909314 0.0051548103,10.896799 0.0085800582,10.874333 0.014053584,10.827132 0.01887775,10.806789 0.020287165,10.797544 0.030489908,10.757822 0.041220826,10.712573 3.0411992,0.71295451C3.1682121,0.2899972,3.5581934,-2.7621081E-07,3.9991998,0z" />
  </g>
</svg>