<?xml version="1.0" encoding="utf-8"?>
<svg xmlns="http://www.w3.org/2000/svg" height="48" width="48" viewBox="0 0 48 48">
  <g>
    <path id="path1" transform="rotate(180,24,24) translate(9.00149917602537,0) scale(1.5,1.5)  " fill="#000000" d="M17.998005,2.0050049C2.4770449,2.2820129,2.011958,14.138,1.9999953,14.651001L1.9999953,30 17.912922,30 17.911945,14.902008 11.560032,14.902008C10.937963,14.902008 10.420019,14.39801 10.404028,13.778992 10.22898,6.9129944 15.813928,5.2219849 17.998005,4.8240051z M18.555987,0C18.654009,0 18.752031,0 18.852007,0.0010070801 19.48201,0.0050048828 19.998001,0.51901245 19.998001,1.1470032L19.998001,5.5679932C19.998001,6.1640015 19.550003,6.6529846 18.953936,6.7059937 17.888996,6.8039856 12.764009,7.5570068 12.419038,12.902008L18.763018,12.902008C19.39595,12.902008,19.911942,13.415009,19.911942,14.045013L19.912918,30.856995C19.912918,31.487,19.396927,32,18.763994,32L1.1500216,32C0.5159899,32,-1.1785232E-07,31.487,0,30.856995L0,14.628998C0.0030516328,14.463013,0.49096554,0,18.555987,0z" />
  </g>
</svg>